<svg id="visual" viewBox="0 0 900 600" width="900" height="600" xmlns="http://www.w3.org/2000/svg" xmlns:xlink="http://www.w3.org/1999/xlink" version="1.1"><rect x="0" y="0" width="900" height="600" fill="#111927"></rect><defs><linearGradient id="grad1_0" x1="33.3%" y1="0%" x2="100%" y2="100%"><stop offset="20%" stop-color="#008ed6" stop-opacity="1"></stop><stop offset="80%" stop-color="#008ed6" stop-opacity="1"></stop></linearGradient></defs><defs><linearGradient id="grad1_1" x1="33.3%" y1="0%" x2="100%" y2="100%"><stop offset="20%" stop-color="#008ed6" stop-opacity="1"></stop><stop offset="80%" stop-color="#1f74b0" stop-opacity="1"></stop></linearGradient></defs><defs><linearGradient id="grad1_2" x1="33.3%" y1="0%" x2="100%" y2="100%"><stop offset="20%" stop-color="#245b8b" stop-opacity="1"></stop><stop offset="80%" stop-color="#1f74b0" stop-opacity="1"></stop></linearGradient></defs><defs><linearGradient id="grad1_3" x1="33.3%" y1="0%" x2="100%" y2="100%"><stop offset="20%" stop-color="#245b8b" stop-opacity="1"></stop><stop offset="80%" stop-color="#214367" stop-opacity="1"></stop></linearGradient></defs><defs><linearGradient id="grad1_4" x1="33.3%" y1="0%" x2="100%" y2="100%"><stop offset="20%" stop-color="#1b2d46" stop-opacity="1"></stop><stop offset="80%" stop-color="#214367" stop-opacity="1"></stop></linearGradient></defs><defs><linearGradient id="grad1_5" x1="33.3%" y1="0%" x2="100%" y2="100%"><stop offset="20%" stop-color="#1b2d46" stop-opacity="1"></stop><stop offset="80%" stop-color="#111927" stop-opacity="1"></stop></linearGradient></defs><defs><linearGradient id="grad2_0" x1="0%" y1="0%" x2="66.7%" y2="100%"><stop offset="20%" stop-color="#008ed6" stop-opacity="1"></stop><stop offset="80%" stop-color="#008ed6" stop-opacity="1"></stop></linearGradient></defs><defs><linearGradient id="grad2_1" x1="0%" y1="0%" x2="66.7%" y2="100%"><stop offset="20%" stop-color="#1f74b0" stop-opacity="1"></stop><stop offset="80%" stop-color="#008ed6" stop-opacity="1"></stop></linearGradient></defs><defs><linearGradient id="grad2_2" x1="0%" y1="0%" x2="66.7%" y2="100%"><stop offset="20%" stop-color="#1f74b0" stop-opacity="1"></stop><stop offset="80%" stop-color="#245b8b" stop-opacity="1"></stop></linearGradient></defs><defs><linearGradient id="grad2_3" x1="0%" y1="0%" x2="66.7%" y2="100%"><stop offset="20%" stop-color="#214367" stop-opacity="1"></stop><stop offset="80%" stop-color="#245b8b" stop-opacity="1"></stop></linearGradient></defs><defs><linearGradient id="grad2_4" x1="0%" y1="0%" x2="66.7%" y2="100%"><stop offset="20%" stop-color="#214367" stop-opacity="1"></stop><stop offset="80%" stop-color="#1b2d46" stop-opacity="1"></stop></linearGradient></defs><defs><linearGradient id="grad2_5" x1="0%" y1="0%" x2="66.7%" y2="100%"><stop offset="20%" stop-color="#111927" stop-opacity="1"></stop><stop offset="80%" stop-color="#1b2d46" stop-opacity="1"></stop></linearGradient></defs><g transform="translate(900, 0)"><path d="M0 459.7C-50.1 431.5 -100.2 403.3 -160 386.2C-219.8 369.1 -289.3 363.1 -325.1 325.1C-360.8 287 -362.9 216.8 -379.7 157.3C-396.5 97.8 -428.1 48.9 -459.7 0L0 0Z" fill="#162336"></path><path d="M0 383.1C-41.7 359.6 -83.5 336.1 -133.3 321.8C-183.1 307.6 -241.1 302.6 -270.9 270.9C-300.7 239.2 -302.4 180.7 -316.4 131.1C-330.4 81.5 -356.8 40.7 -383.1 0L0 0Z" fill="#1e3856"></path><path d="M0 306.5C-33.4 287.7 -66.8 268.8 -106.6 257.5C-146.5 246.1 -192.9 242.1 -216.7 216.7C-240.6 191.3 -241.9 144.5 -253.1 104.9C-264.4 65.2 -285.4 32.6 -306.5 0L0 0Z" fill="#234f79"></path><path d="M0 229.9C-25 215.7 -50.1 201.6 -80 193.1C-109.9 184.5 -144.6 181.6 -162.5 162.5C-180.4 143.5 -181.4 108.4 -189.9 78.6C-198.3 48.9 -214.1 24.4 -229.9 0L0 0Z" fill="#23679d"></path><path d="M0 153.2C-16.7 143.8 -33.4 134.4 -53.3 128.7C-73.3 123 -96.4 121 -108.4 108.4C-120.3 95.7 -121 72.3 -126.6 52.4C-132.2 32.6 -142.7 16.3 -153.2 0L0 0Z" fill="#1681c3"></path><path d="M0 76.6C-8.3 71.9 -16.7 67.2 -26.7 64.4C-36.6 61.5 -48.2 60.5 -54.2 54.2C-60.1 47.8 -60.5 36.1 -63.3 26.2C-66.1 16.3 -71.4 8.1 -76.6 0L0 0Z" fill="#008ed6"></path></g><g transform="translate(0, 600)"><path d="M0 -459.7C55.2 -422.3 110.3 -384.9 142.4 -343.7C174.4 -302.5 183.3 -257.5 234.8 -234.8C286.2 -212 380.1 -211.4 424.7 -175.9C469.3 -140.5 464.5 -70.2 459.7 0L0 0Z" fill="#162336"></path><path d="M0 -383.1C46 -351.9 91.9 -320.7 118.6 -286.4C145.3 -252.1 152.8 -214.6 195.6 -195.6C238.5 -176.6 316.8 -176.1 353.9 -146.6C391.1 -117.1 387.1 -58.5 383.1 0L0 0Z" fill="#1e3856"></path><path d="M0 -306.5C36.8 -281.5 73.5 -256.6 94.9 -229.1C116.3 -201.7 122.2 -171.7 156.5 -156.5C190.8 -141.3 253.4 -140.9 283.1 -117.3C312.9 -93.7 309.7 -46.8 306.5 0L0 0Z" fill="#234f79"></path><path d="M0 -229.9C27.6 -211.1 55.2 -192.4 71.2 -171.8C87.2 -151.2 91.7 -128.8 117.4 -117.4C143.1 -106 190.1 -105.7 212.4 -88C234.6 -70.2 232.2 -35.1 229.9 0L0 0Z" fill="#23679d"></path><path d="M0 -153.2C18.4 -140.8 36.8 -128.3 47.5 -114.6C58.1 -100.8 61.1 -85.8 78.3 -78.3C95.4 -70.7 126.7 -70.5 141.6 -58.6C156.4 -46.8 154.8 -23.4 153.2 0L0 0Z" fill="#1681c3"></path><path d="M0 -76.6C9.2 -70.4 18.4 -64.1 23.7 -57.3C29.1 -50.4 30.6 -42.9 39.1 -39.1C47.7 -35.3 63.4 -35.2 70.8 -29.3C78.2 -23.4 77.4 -11.7 76.6 0L0 0Z" fill="#008ed6"></path></g></svg>